<svg width="141" height="26" viewBox="0 0 141 26" fill="none" xmlns="http://www.w3.org/2000/svg">
<path fill-rule="evenodd" clip-rule="evenodd" d="M123.823 9.19316H119.765V8.01529C119.765 7.30142 119.937 6.78744 120.28 6.47334C120.624 6.15924 121.196 6.00219 121.998 6.00219C122.37 6.00219 122.735 6.04502 123.093 6.13068C123.451 6.21635 123.766 6.31629 124.038 6.43051C124.152 6.31629 124.245 6.18779 124.317 6.04502C124.403 5.88797 124.445 5.7095 124.445 5.50962C124.445 5.09558 124.209 4.77434 123.737 4.5459C123.265 4.31746 122.585 4.20325 121.697 4.20325C121.082 4.20325 120.516 4.27463 120.001 4.41741C119.5 4.56018 119.071 4.78148 118.713 5.0813C118.355 5.38112 118.076 5.76661 117.875 6.23776C117.689 6.70891 117.596 7.27287 117.596 7.92962V17.6953C117.596 18.0665 117.696 18.3306 117.897 18.4877C118.097 18.6447 118.405 18.7233 118.82 18.7233C119.035 18.7233 119.228 18.7018 119.4 18.659C119.586 18.6305 119.729 18.5948 119.829 18.5519V10.9707H123.243C123.787 10.9707 124.059 10.6709 124.059 10.0712C124.059 9.87134 124.03 9.70001 123.973 9.55723C123.93 9.40018 123.88 9.27883 123.823 9.19316ZM126.743 18.4877C126.943 18.6447 127.251 18.7233 127.666 18.7233C127.881 18.7233 128.074 18.7018 128.246 18.659C128.432 18.6305 128.582 18.5948 128.697 18.5519V5.55245C128.697 5.18124 128.597 4.91711 128.396 4.76006C128.196 4.60301 127.888 4.52449 127.473 4.52449C127.258 4.52449 127.058 4.5459 126.872 4.58873C126.686 4.63157 126.542 4.66726 126.442 4.69581V17.6953C126.442 18.0665 126.542 18.3306 126.743 18.4877ZM55.1752 8.27228C55.6046 8.27228 56.0054 8.32225 56.3775 8.42219C56.764 8.50785 57.1004 8.62207 57.3867 8.76484V4.69581C57.4869 4.66726 57.63 4.63157 57.8161 4.58873C58.0022 4.5459 58.2026 4.52449 58.4173 4.52449C58.8324 4.52449 59.1401 4.60301 59.3405 4.76006C59.5409 4.91711 59.6411 5.18124 59.6411 5.55245V16.7744C59.6411 17.0742 59.5767 17.3241 59.4479 17.524C59.3191 17.7096 59.1187 17.888 58.8467 18.0594C58.5175 18.2735 58.0666 18.4663 57.494 18.6376C56.9358 18.8089 56.2916 18.8946 55.5616 18.8946C54.7457 18.8946 54.0014 18.7946 53.3287 18.5948C52.6559 18.3806 52.0833 18.0594 51.611 17.631C51.1386 17.1885 50.7736 16.6388 50.516 15.982C50.2583 15.311 50.1295 14.5257 50.1295 13.6263C50.1295 12.6982 50.2583 11.8987 50.516 11.2277C50.7879 10.5424 51.1529 9.98555 51.611 9.55723C52.069 9.11464 52.5986 8.7934 53.1998 8.59352C53.8153 8.37936 54.4738 8.27228 55.1752 8.27228ZM57.4081 10.6494C57.1648 10.4924 56.8785 10.3568 56.5493 10.2425C56.2201 10.1283 55.8551 10.0712 55.4543 10.0712C55.0249 10.0712 54.6241 10.1355 54.2519 10.264C53.8941 10.3925 53.5792 10.6066 53.3072 10.9064C53.0352 11.192 52.8205 11.5632 52.6631 12.0201C52.5056 12.4627 52.4269 13.0052 52.4269 13.6477C52.4269 14.847 52.706 15.7179 53.2642 16.2604C53.8368 16.803 54.5954 17.0742 55.5402 17.0742C55.9696 17.0742 56.3274 17.0314 56.6137 16.9457C56.9143 16.8458 57.1791 16.7316 57.4081 16.6031V10.6494ZM64.8718 18.5519C64.7716 18.5948 64.6285 18.6305 64.4424 18.659C64.2706 18.7018 64.0774 18.7233 63.8627 18.7233C63.4476 18.7233 63.1398 18.6447 62.9394 18.4877C62.739 18.3306 62.6388 18.0665 62.6388 17.6953V10.6709V9.49299V7.72939C62.6388 7.72939 62.8226 7.06427 63.3228 7.01677C64.445 6.91024 64.6216 7.58565 64.7487 8.07168C64.8263 8.36816 64.8854 8.59418 65.1295 8.52927C65.7736 8.35794 66.4821 8.27228 67.2551 8.27228C68.5147 8.27228 69.1445 8.62921 69.1445 9.34308C69.1445 9.5144 69.1159 9.67859 69.0586 9.83564C69.0014 9.97842 68.937 10.1069 68.8654 10.2211C68.7223 10.1926 68.5433 10.164 68.3286 10.1355C68.1139 10.1069 67.8849 10.0926 67.6416 10.0926C67.069 10.0926 66.5465 10.1569 66.0742 10.2854C65.6018 10.3996 65.201 10.5495 64.8718 10.7351V18.5519ZM75.9258 17.01C75.5537 17.1099 75.1171 17.1599 74.6161 17.1599C73.8575 17.1599 73.2992 17.0314 72.9414 16.7744C72.5835 16.5031 72.4046 16.1319 72.4046 15.6608C72.4046 15.2039 72.5692 14.8684 72.8984 14.6542C73.2276 14.4258 73.7215 14.2759 74.3799 14.2045L76.7203 13.9689V16.6887C76.5628 16.803 76.298 16.91 75.9258 17.01ZM77.7509 9.15033C76.9636 8.56496 75.9044 8.27228 74.5732 8.27228C74.0006 8.27228 73.4567 8.32225 72.9414 8.42219C72.4261 8.50785 71.968 8.65063 71.5672 8.85051C71.3096 8.96473 71.1163 9.10036 70.9875 9.25741C70.873 9.41446 70.8157 9.61434 70.8157 9.85706C70.8157 10.0569 70.8658 10.2425 70.966 10.4139C71.0662 10.5709 71.1879 10.7066 71.331 10.8208C71.7461 10.6209 72.2185 10.4424 72.7481 10.2854C73.2777 10.1283 73.8288 10.0498 74.4014 10.0498C75.1314 10.0498 75.6968 10.1926 76.0976 10.4781C76.5127 10.7637 76.7203 11.2205 76.7203 11.8487V12.3199L73.7358 12.6197C72.5907 12.7339 71.7104 13.0409 71.0949 13.5406C70.4937 14.0403 70.1931 14.7613 70.1931 15.7036C70.1931 16.7601 70.5796 17.5597 71.3525 18.1022C72.1398 18.6447 73.2276 18.916 74.6161 18.916C75.3891 18.916 76.069 18.8375 76.6558 18.6804C77.2427 18.5234 77.7222 18.3378 78.0944 18.1236C78.352 17.9666 78.5524 17.8024 78.6956 17.631C78.853 17.4454 78.9318 17.1885 78.9318 16.8601V11.8702C78.9318 10.628 78.5381 9.72142 77.7509 9.15033ZM88.3734 17.6525C88.1015 17.8238 87.7651 17.9666 87.3643 18.0808C86.9778 18.195 86.5126 18.2521 85.9687 18.2521C85.3389 18.2521 84.7377 18.1664 84.1651 17.9951C83.6069 17.8095 83.1131 17.524 82.6836 17.1385C82.2542 16.7387 81.9107 16.2247 81.653 15.5965C81.4097 14.9683 81.288 14.1974 81.288 13.2836C81.288 12.4555 81.4097 11.7345 81.653 11.1206C81.9107 10.4924 82.2614 9.97128 82.7051 9.55723C83.1632 9.12892 83.6999 8.80768 84.3154 8.59352C84.9452 8.37936 85.6395 8.27228 86.3981 8.27228C87.0995 8.27228 87.7436 8.36508 88.3305 8.55069C88.9317 8.72201 89.4184 8.92903 89.7905 9.17175C90.0339 9.3288 90.2199 9.50726 90.3488 9.70715C90.4919 9.90703 90.5635 10.1497 90.5635 10.4353V18.8732C90.5635 19.587 90.4347 20.201 90.177 20.7149C89.9337 21.2289 89.5901 21.643 89.1464 21.9571C88.717 22.2854 88.2017 22.521 87.6005 22.6638C86.9993 22.8208 86.3552 22.8994 85.6681 22.8994C84.9381 22.8994 84.3083 22.828 83.7787 22.6852C83.249 22.5424 82.8626 22.3997 82.6192 22.2569C82.1755 21.9856 81.9536 21.6287 81.9536 21.1861C81.9536 20.9434 82.0037 20.7364 82.1039 20.565C82.2041 20.408 82.333 20.2795 82.4904 20.1795C82.8196 20.408 83.2562 20.615 83.8001 20.8006C84.3441 20.9862 84.9238 21.079 85.5393 21.079C86.4411 21.079 87.1353 20.8934 87.622 20.5222C88.1229 20.1653 88.3734 19.5799 88.3734 18.7661V17.6525ZM86.2908 16.496C86.7774 16.496 87.1854 16.4246 87.5146 16.2818C87.8438 16.1391 88.1229 15.9677 88.352 15.7679V10.5852C88.1373 10.4567 87.8725 10.3425 87.5575 10.2425C87.2426 10.1283 86.8705 10.0712 86.4411 10.0712C85.5679 10.0712 84.8665 10.3353 84.3369 10.8636C83.8073 11.3919 83.5425 12.1914 83.5425 13.2622C83.5425 13.8476 83.614 14.3473 83.7572 14.7613C83.9003 15.1754 84.0936 15.5109 84.3369 15.7679C84.5802 16.0249 84.8665 16.2105 85.1957 16.3247C85.5393 16.4389 85.9043 16.496 86.2908 16.496ZM102.779 15.7893C103.022 15.1325 103.144 14.3972 103.144 13.5834C103.144 12.7696 103.022 12.0415 102.779 11.399C102.535 10.7423 102.192 10.1854 101.748 9.72856C101.304 9.25741 100.768 8.90048 100.138 8.65776C99.508 8.40077 98.8138 8.27228 98.0552 8.27228C97.2965 8.27228 96.6023 8.40077 95.9725 8.65776C95.3427 8.90048 94.8059 9.25027 94.3622 9.70715C93.9184 10.164 93.5749 10.7208 93.3316 11.3776C93.0882 12.0343 92.9665 12.7696 92.9665 13.5834C92.9665 14.3972 93.0882 15.1325 93.3316 15.7893C93.5749 16.446 93.9113 17.0028 94.3407 17.4597C94.7844 17.9166 95.3212 18.2735 95.951 18.5305C96.5808 18.7732 97.2822 18.8946 98.0552 18.8946C98.8281 18.8946 99.5295 18.7732 100.159 18.5305C100.789 18.2735 101.319 17.9166 101.748 17.4597C102.192 17.0028 102.535 16.446 102.779 15.7893ZM96.0154 10.9921C96.5164 10.3782 97.1963 10.0712 98.0552 10.0712C98.9283 10.0712 99.6082 10.3853 100.095 11.0135C100.596 11.6274 100.846 12.4841 100.846 13.5834C100.846 14.6971 100.603 15.5608 100.116 16.1748C99.6297 16.7744 98.9426 17.0742 98.0552 17.0742C97.1677 17.0742 96.4806 16.7744 95.9939 16.1748C95.5073 15.5608 95.2639 14.6971 95.2639 13.5834C95.2639 12.4698 95.5144 11.606 96.0154 10.9921ZM112.345 12.1057C112.345 11.4061 112.144 10.8922 111.743 10.5638C111.357 10.2354 110.827 10.0712 110.155 10.0712C109.654 10.0712 109.203 10.1355 108.802 10.264C108.415 10.3925 108.079 10.5352 107.793 10.6923V18.5519C107.693 18.5948 107.549 18.6305 107.363 18.659C107.192 18.7018 106.998 18.7233 106.784 18.7233C106.368 18.7233 106.061 18.6447 105.86 18.4877C105.66 18.3306 105.56 18.0665 105.56 17.6953V10.628C105.56 10.2997 105.624 10.0355 105.753 9.83564C105.882 9.63576 106.097 9.43588 106.397 9.236C106.798 8.99328 107.32 8.77198 107.965 8.5721C108.609 8.37222 109.339 8.27228 110.155 8.27228C111.543 8.27228 112.631 8.58638 113.418 9.21458C114.205 9.8285 114.599 10.7637 114.599 12.0201V18.5519C114.499 18.5948 114.356 18.6305 114.17 18.659C113.984 18.7018 113.783 18.7233 113.568 18.7233C113.153 18.7233 112.846 18.6447 112.645 18.4877C112.445 18.3306 112.345 18.0665 112.345 17.6953V12.1057ZM130.774 8.9576C131.311 8.60066 131.924 8.55286 132.467 8.82375C133.541 9.35915 135.247 13.9546 136.142 16.4532L138.289 8.42219C138.647 8.24373 139.692 8.45719 139.905 9.02452C140.307 10.0953 139.505 13.1069 137.895 16.8547C136.284 20.6025 134.076 22.878 133.271 22.878C132.413 22.878 132.043 22.4318 131.864 22.0749L134.679 18.2602L130.774 8.9576Z" fill="white"/>
<path d="M27.7388 6.04623L32.714 1.07668L37.6892 6.04623L32.714 11.0158L27.7388 6.04623Z" fill="white"/>
<path d="M37.6879 8.55591L41.2311 5.01668L44.7743 8.55591L41.2311 12.0951L37.6879 8.55591Z" fill="white"/>
<path d="M44.2205 5.27261L46.4946 3.001L48.7688 5.27261L46.4946 7.54422L44.2205 5.27261Z" fill="white"/>
<path d="M27.7388 18.5946L32.714 13.6251L37.6892 18.5946L32.714 23.5642L27.7388 18.5946Z" fill="white"/>
<path fill-rule="evenodd" clip-rule="evenodd" d="M11.8043 1.49574L0 12.2872L11.7195 23.4278C13.9284 25.5276 17.2632 25.5276 19.4721 23.4278L31.1915 12.2872L19.3872 1.49574C17.2057 -0.498583 13.9858 -0.49858 11.8043 1.49574ZM7.78882 14.3282C9.03769 14.3282 10.0501 13.3169 10.0501 12.0695C10.0501 10.822 9.03769 9.81076 7.78882 9.81076C6.53996 9.81076 5.52755 10.822 5.52755 12.0695C5.52755 13.3169 6.53996 14.3282 7.78882 14.3282Z" fill="white"/>
</svg>
