<svg t="1601522811760" class="icon" viewBox="0 0 1187 1024" version="1.1" xmlns="http://www.w3.org/2000/svg" p-id="4858" width="64" height="64"><path d="M599.554799 11.547618c-65.365422 16.98006-123.017755 62.313978-180.324496 121.783866 39.220789 35.749515 42.768861 96.256178 7.994682 136.342226-34.774179 40.088608-95.178444 45.121443-136.106712 11.340519-67.310974 80.41273-140.811875 165.423106-230.519734 235.680567-228.407787 178.893492 241.299628 505.149738 538.95626 505.149737 297.654073 0 538.953701-226.162722 538.953701-505.149737 0-278.984455-252.1128-579.661813-538.953701-505.147178z" fill="#DDE3F1" p-id="4859"></path><path d="M492.267855 989.392217a205.317158 21.81578 0 1 0 410.634317 0 205.317158 21.81578 0 1 0-410.634317 0Z" fill="#000000" opacity=".1" p-id="4860"></path><path d="M1187.720722 953.184473c0 37.56195-22.327767 50.676506-49.872685 50.676505a87.869825 87.869825 0 0 1-5.700979-0.197115c-24.859545-1.758676-44.171707-15.546495-44.171707-50.47939 0-36.143745 46.186377-81.756697 49.665331-85.138373l0.00512-0.00512c0.133117-0.133117 0.204795-0.197115 0.204795-0.197115s49.870126 47.783777 49.870125 85.340608z" fill="#0647CF" p-id="4861"></path><path d="M1136.030482 998.113921l18.242108-25.48417-18.288187 28.28474-0.046079 2.923448c-1.274848-0.025599-2.542017-0.087038-3.791266-0.174076l1.963471-37.57475-0.012799-0.294392 0.033279-0.051199 0.186875-3.553192-18.331706-28.353858 18.388025 25.691524 0.046079 0.752621 1.482203-28.389697-15.692412-29.298475 15.884407 24.319398 1.546202-58.865743 0.00512-0.202235v0.197115l-0.255994 46.416771 15.623293-18.403384-15.687291 22.399445-0.41471 25.422731 14.591639-24.396196-14.650518 28.136263-0.230394 14.133411 21.175796-33.95756-21.257714 38.887998-0.509427 31.436022z" fill="#3F3D56" p-id="4862"></path><path d="M609.274879 247.384341m-61.290003 0a61.290003 61.290003 0 1 0 122.580006 0 61.290003 61.290003 0 1 0-122.580006 0Z" fill="#2F2E41" p-id="4863"></path><path d="M750.347867 788.961977l32.75951 132.090171 32.759509-5.283709-32.759509-151.11306z" fill="#E7C7CA" p-id="4864"></path><path d="M794.732049 912.596677s-18.656818 6.307684-16.196719 10.552059c2.457539 4.244375 2.457539 30.660361-5.995372 40.173086-8.452911 9.510165-29.587748 39.097912-5.283709 40.155166 24.304038 1.057254 48.610637-14.796434 48.610637-14.796434v-27.47324l4.223895 25.361292h4.229016v-28.530493s10.567418-17.965635 4.226455-28.533054c-6.338403-10.567418-10.470141-19.775511-18.444344-18.869293-7.974203 0.906218-15.36986 1.960911-15.369859 1.960911z" fill="#2F2E41" p-id="4865"></path><path d="M621.426898 900.974565l-5.283709 28.530494h36.985965v-28.530494z" fill="#E7C7CA" p-id="4866"></path><path d="M624.59866 923.164096s-10.567418-1.054694-13.73918 13.73918c-3.169202 14.793874-31.702255 35.928711-42.269674 39.097912-10.567418 3.171761-10.567418 13.73918 3.171761 15.851128 13.73662 2.114508 48.608077 3.171761 57.060988-8.452911a103.585276 103.585276 0 0 1 20.080143-20.077583l-5.283709 29.587747h9.510165s8.455471-28.533054 16.908381-38.040658c8.452911-9.512725-16.908382-31.704815-21.134837-31.704815h-24.304038z" fill="#2F2E41" p-id="4867"></path><path d="M572.818821 468.770222s-7.398217 20.077583-20.080143 23.249345c-12.679366 3.169202-106.728878 25.361292-106.728878 25.361292s-82.42484 2.111948-57.060988 20.077583c25.358732 17.963075 66.571152 0 66.571152 0s120.468058-14.796434 129.978223-30.645002a213.606233 213.606233 0 0 0 15.851128-33.816763l-28.530494-4.223895z" fill="#E7C7CA" p-id="4868"></path><path d="M612.973987 380.004419s-60.235309 98.275968-52.837092 100.390475c7.398217 2.111948 76.083877 24.304038 79.255638 15.851128 3.169202-8.455471 3.169202-47.553383 3.169202-47.553383l-29.587748-68.68822z" fill="#2F2E41" p-id="4869"></path><path d="M612.973987 380.004419s-60.235309 98.275968-52.837092 100.390475c7.398217 2.111948 76.083877 24.304038 79.255638 15.851128 3.169202-8.455471 3.169202-47.553383 3.169202-47.553383l-29.587748-68.68822z" fill="#000000" opacity=".1" p-id="4870"></path><path d="M769.370757 356.757634l136.316626 69.742914s77.143691 20.077583 60.235309 35.928711-71.857422-13.73662-71.857422-13.73662l-151.11306-68.68822 26.418547-23.246785zM595.008352 301.806034s26.418546 40.157726 24.306598 49.667891c0 0 2.111948 6.340963-1.057253 10.567418-3.171761 4.223895-2.114508 29.587748-2.114508 29.587748l10.567418 14.796434 13.73918-45.441435 6.338403-48.610637s-14.263967-19.547676-12.152019-29.060401c2.114508-9.510165-39.627819 18.492982-39.627819 18.492982z" fill="#E7C7CA" p-id="4871"></path><path d="M678.490446 530.060225s-59.175495 158.511277-59.175496 228.254191c0 69.745474-22.194651 148.998552-5.283709 156.396769 16.905822 7.398217 102.499863 8.452911 104.614371 0 2.114508-8.452911-10.564859-351.891451-16.905822-365.628071-6.340963-13.73918-23.249345-19.020329-23.249344-19.020329z" fill="#2F2E41" p-id="4872"></path><path d="M678.490446 530.060225s-59.175495 158.511277-59.175496 228.254191c0 69.745474-22.194651 148.998552-5.283709 156.396769 16.905822 7.398217 102.499863 8.452911 104.614371 0 2.114508-8.452911-10.564859-351.891451-16.905822-365.628071-6.340963-13.73918-23.249345-19.020329-23.249344-19.020329z" fill="#000000" opacity=".1" p-id="4873"></path><path d="M608.747532 269.049085m-39.097912 0a39.097912 39.097912 0 1 0 78.195824 0 39.097912 39.097912 0 1 0-78.195824 0Z" fill="#E7C7CA" p-id="4874"></path><path d="M620.369644 387.402636l-2.82873-23.84837s-8.793382 12.223697-8.793382 21.733862-5.283709 43.326928 16.905822 64.459205c22.194651 21.137397 26.418546 25.363852 27.4758 29.590307 1.057254 4.226455 6.340963 4.226455 6.340963 4.226456l30.645001 123.63726s9.510165 328.644666 24.304039 332.871121c14.796434 4.226455 60.235309 0 63.40451-5.283709 3.169202-5.283709-5.283709-145.829351-5.283709-145.829351s23.249345 124.694514 31.702255 124.694514c8.452911 0 13.73662-17.963075 11.622113-19.020329-2.111948-1.057254-14.791314-82.42484-20.075023-107.786132-5.283709-25.361292-3.171761-239.878863-3.171762-239.878863s16.908382-27.4758-41.21242-81.367587c0 0-36.985965-107.788692-39.097912-107.788692-2.114508 0-43.326928-58.118242-43.326928-58.118241s-23.246785 0-27.4758 13.73662c-4.223895 13.73662-21.134837 73.971929-21.134837 73.971929z" fill="#2F2E41" p-id="4875"></path><path d="M656.300915 308.146997l12.679366-8.45291s52.837092 31.702255 89.823057 33.816763c36.985965 2.111948 35.928711 23.244225 21.134837 38.040658-14.796434 14.793874-72.914675 65.516458-75.029183 52.837092-2.111948-12.681926-48.608077-116.241603-48.608077-116.241603z" fill="#2F2E41" p-id="4876"></path><path d="M567.005205 230.47852a42.269674 25.361292 0 1 0 84.539348 0 42.269674 25.361292 0 1 0-84.539348 0Z" fill="#2F2E41" p-id="4877"></path><path d="M613.501334 186.094338m-25.361292 0a25.361292 25.361292 0 1 0 50.722585 0 25.361292 25.361292 0 1 0-50.722585 0Z" fill="#2F2E41" p-id="4878"></path><path d="M579.687131 172.357718a25.363852 25.363852 0 0 1 22.719438-25.225616 25.578887 25.578887 0 0 0-2.641855-0.135676c-14.000293 0.01024-25.343373 11.360999-25.343372 25.361292s11.343079 25.351053 25.343372 25.361292c0.883178 0 1.766356-0.046079 2.641855-0.138236a25.363852 25.363852 0 0 1-22.719438-25.223056z" fill="#2F2E41" p-id="4879"></path><path d="M395.302575 532.543364l558.670333-93.962475 54.874801 326.263925-558.670332 93.965034z" fill="#4A90E2" p-id="4880"></path><path d="M875.065421 546.141747l-371.024418 61.720072a7.631171 7.631171 0 1 1-2.503618-15.057547l371.021858-61.720072a7.631171 7.631171 0 0 1 2.503618 15.057547z" fill="#0647CF" opacity=".3" p-id="4881"></path><path d="M772.721714 555.429197m-31.615218 0a31.615218 31.615218 0 1 0 63.230435 0 31.615218 31.615218 0 1 0-63.230435 0Z" fill="#0647CF" p-id="4882"></path><path d="M888.83788 628.950577l-371.021857 61.720073a7.631171 7.631171 0 1 1-2.503619-15.057547l371.021858-61.720073a7.631171 7.631171 0 0 1 2.503618 15.057547z" fill="#0647CF" opacity=".3" p-id="4883"></path><path d="M618.728725 666.146457m-31.615218 0a31.615218 31.615218 0 1 0 63.230435 0 31.615218 31.615218 0 1 0-63.230435 0Z" fill="#0647CF" p-id="4884"></path><path d="M902.612899 711.756848l-371.021857 61.720072a7.631171 7.631171 0 1 1-2.503618-15.054987l371.021857-61.720072a7.631171 7.631171 0 1 1 2.503618 15.054987z" fill="#0647CF" opacity=".3" p-id="4885"></path><path d="M747.575456 729.812081m-31.615218 0a31.615218 31.615218 0 1 0 63.230435 0 31.615218 31.615218 0 1 0-63.230435 0Z" fill="#0647CF" p-id="4886"></path><path d="M350.803196 205.598495m-69.699395 0a69.699395 69.699395 0 1 0 139.39879 0 69.699395 69.699395 0 1 0-139.39879 0Z" fill="#BE6F72" p-id="4887"></path></svg>