<svg width="18" height="18" viewBox="0 0 18 18" fill="none" xmlns="http://www.w3.org/2000/svg">
<path fill-rule="evenodd" clip-rule="evenodd" d="M12.924 13.7893C13.1943 13.5189 13.6327 13.5189 13.903 13.7893L16.9319 16.8181C17.2023 17.0885 17.2023 17.5269 16.9319 17.7972C16.6615 18.0676 16.2232 18.0676 15.9528 17.7972L12.924 14.7684C12.6536 14.498 12.6536 14.0597 12.924 13.7893Z" fill="white"/>
<path fill-rule="evenodd" clip-rule="evenodd" d="M8.26051 15.1364C12.058 15.1364 15.1364 12.058 15.1364 8.26051C15.1364 4.46306 12.058 1.38462 8.26051 1.38462C4.46306 1.38462 1.38462 4.46306 1.38462 8.26051C1.38462 12.058 4.46306 15.1364 8.26051 15.1364ZM8.26051 16.521C12.8227 16.521 16.521 12.8227 16.521 8.26051C16.521 3.69836 12.8227 0 8.26051 0C3.69836 0 0 3.69836 0 8.26051C0 12.8227 3.69836 16.521 8.26051 16.521Z" fill="white"/>
</svg>
